<svg width="305" height="43" viewBox="0 0 305 43" fill="none" xmlns="http://www.w3.org/2000/svg">
<path d="M0.253906 2.20903C0.253906 1.496 0.831931 0.917969 1.54496 0.917969H303.315C304.028 0.917969 304.606 1.49599 304.606 2.20902V41.1734C304.606 41.8864 304.028 42.4644 303.315 42.4644H12.9467C12.6333 42.4644 12.3307 42.3505 12.0951 42.1438L0.693428 32.1389C0.414072 31.8938 0.253906 31.5402 0.253906 31.1685V2.20903Z" fill="url(#paint0_linear_15112_2041)"/>
<path d="M116.231 25.4785H115.071L118.425 16.3436H119.567L122.922 25.4785H121.762L119.032 17.7887H118.961L116.231 25.4785ZM116.659 21.9102H121.334V22.8915H116.659V21.9102ZM128.419 25.4785H125.6V16.3436H128.544C129.43 16.3436 130.189 16.5264 130.819 16.8922C131.45 17.255 131.933 17.7768 132.269 18.4578C132.605 19.1358 132.773 19.9476 132.773 20.8932C132.773 21.8448 132.603 22.664 132.264 23.3509C131.925 24.0348 131.432 24.5612 130.783 24.9299C130.135 25.2956 129.347 25.4785 128.419 25.4785ZM126.707 24.4972H128.348C129.103 24.4972 129.729 24.3515 130.226 24.0601C130.722 23.7687 131.093 23.3539 131.337 22.8156C131.58 22.2774 131.702 21.6366 131.702 20.8932C131.702 20.1557 131.582 19.5209 131.341 18.9886C131.1 18.4533 130.74 18.043 130.262 17.7575C129.783 17.4691 129.187 17.3249 128.473 17.3249H126.707V24.4972ZM138.703 25.4785H135.884V16.3436H138.828C139.714 16.3436 140.473 16.5264 141.103 16.8922C141.734 17.255 142.217 17.7768 142.553 18.4578C142.889 19.1358 143.057 19.9476 143.057 20.8932C143.057 21.8448 142.887 22.664 142.548 23.3509C142.209 24.0348 141.716 24.5612 141.067 24.9299C140.419 25.2956 139.631 25.4785 138.703 25.4785ZM136.991 24.4972H138.632C139.387 24.4972 140.013 24.3515 140.51 24.0601C141.006 23.7687 141.377 23.3539 141.621 22.8156C141.864 22.2774 141.986 21.6366 141.986 20.8932C141.986 20.1557 141.866 19.5209 141.625 18.9886C141.384 18.4533 141.024 18.043 140.546 17.7575C140.067 17.4691 139.471 17.3249 138.757 17.3249H136.991V24.4972ZM152.616 25.4785L150.119 16.3436H151.243L153.152 23.7836H153.241L155.186 16.3436H156.434L158.379 23.7836H158.468L160.377 16.3436H161.502L159.004 25.4785H157.862L155.846 18.1991H155.774L153.758 25.4785H152.616ZM164.136 25.4785V16.3436H167.33C167.966 16.3436 168.491 16.4536 168.904 16.6736C169.317 16.8907 169.625 17.1836 169.827 17.5523C170.03 17.9181 170.131 18.324 170.131 18.77C170.131 19.1626 170.061 19.4867 169.921 19.7424C169.784 19.9981 169.603 20.2003 169.377 20.349C169.154 20.4977 168.911 20.6077 168.65 20.6791V20.7683C168.929 20.7861 169.21 20.8843 169.493 21.0627C169.775 21.2411 170.012 21.4968 170.202 21.8299C170.392 22.1629 170.487 22.5703 170.487 23.052C170.487 23.51 170.383 23.9218 170.175 24.2876C169.967 24.6533 169.639 24.9433 169.19 25.1574C168.74 25.3715 168.156 25.4785 167.437 25.4785H164.136ZM165.242 24.4972H167.437C168.159 24.4972 168.672 24.3575 168.975 24.0779C169.282 23.7954 169.435 23.4535 169.435 23.052C169.435 22.7428 169.356 22.4573 169.198 22.1956C169.041 21.931 168.816 21.7199 168.525 21.5623C168.233 21.4017 167.889 21.3214 167.49 21.3214H165.242V24.4972ZM165.242 20.3579H167.294C167.627 20.3579 167.927 20.2925 168.195 20.1617C168.465 20.0308 168.68 19.8465 168.837 19.6086C168.998 19.3707 169.078 19.0912 169.078 18.77C169.078 18.3686 168.938 18.0281 168.659 17.7486C168.379 17.4661 167.936 17.3249 167.33 17.3249H165.242V20.3579ZM173.062 17.3249V16.3436H179.913V17.3249H177.04V25.4785H175.934V17.3249H173.062ZM189.847 19.1982H188.74C188.675 18.8801 188.561 18.6005 188.397 18.3597C188.236 18.1188 188.04 17.9166 187.808 17.7531C187.579 17.5865 187.325 17.4616 187.045 17.3784C186.766 17.2951 186.475 17.2535 186.171 17.2535C185.618 17.2535 185.117 17.3932 184.668 17.6728C184.222 17.9523 183.867 18.3641 183.602 18.9083C183.34 19.4525 183.21 20.1201 183.21 20.911C183.21 21.702 183.34 22.3696 183.602 22.9138C183.867 23.4579 184.222 23.8698 184.668 24.1493C185.117 24.4288 185.618 24.5686 186.171 24.5686C186.475 24.5686 186.766 24.527 187.045 24.4437C187.325 24.3604 187.579 24.237 187.808 24.0735C188.04 23.907 188.236 23.7033 188.397 23.4624C188.561 23.2186 188.675 22.939 188.74 22.6238H189.847C189.763 23.0907 189.612 23.5085 189.392 23.8772C189.172 24.246 188.898 24.5597 188.571 24.8184C188.244 25.0741 187.877 25.2689 187.469 25.4027C187.065 25.5365 186.632 25.6034 186.171 25.6034C185.392 25.6034 184.699 25.4131 184.093 25.0325C183.486 24.6518 183.009 24.1107 182.661 23.4089C182.313 22.7071 182.139 21.8745 182.139 20.911C182.139 19.9476 182.313 19.115 182.661 18.4132C183.009 17.7114 183.486 17.1702 184.093 16.7896C184.699 16.409 185.392 16.2187 186.171 16.2187C186.632 16.2187 187.065 16.2856 187.469 16.4194C187.877 16.5532 188.244 16.7495 188.571 17.0082C188.898 17.2639 189.172 17.5761 189.392 17.9449C189.612 18.3106 189.763 18.7284 189.847 19.1982Z" fill="black"/>
<defs>
<linearGradient id="paint0_linear_15112_2041" x1="0.253906" y1="0.917969" x2="11.3893" y2="82.4909" gradientUnits="userSpaceOnUse">
<stop stop-color="#81FBB8"/>
<stop offset="1" stop-color="#28C76F"/>
</linearGradient>
</defs>
</svg>
