<svg width="44" height="44" viewBox="0 0 44 44" fill="none" xmlns="http://www.w3.org/2000/svg">
<circle cx="22.3008" cy="21.9263" r="21" fill="#FEFCF8" stroke="#FFC700"/>
<rect x="14.9844" y="11.4061" width="14.9826" height="21.0202" fill="#823FAB"/>
<rect x="14.9844" y="12.1187" width="14.9826" height="1.78138" fill="#905EAF"/>
<rect x="14.9844" y="29.9324" width="14.9826" height="1.78138" fill="#905EAF"/>
<rect x="14.9844" y="25.6571" width="14.9826" height="1.78138" fill="#905EAF"/>
<rect x="14.9844" y="16.1065" width="14.9826" height="1.78138" fill="#905EAF"/>
<rect x="10.4531" y="11.4061" width="4.18118" height="11.0445" fill="#D28800"/>
<rect x="11.8477" y="22.0944" width="2.78746" height="9.26316" fill="#D28800"/>
<rect x="29.9648" y="11.4061" width="4.18118" height="11.0445" fill="#D28800"/>
<rect x="29.9648" y="22.0944" width="2.78746" height="9.26316" fill="#D28800"/>
<rect x="14.6367" y="21.0255" width="15.331" height="2.13765" fill="#FBB603"/>
<mask id="mask0_19529_10672" style="mask-type:alpha" maskUnits="userSpaceOnUse" x="9" y="10" width="26" height="23">
<path d="M33.9079 10.4263H30.3365C30.0997 10.4263 29.8726 10.5225 29.7052 10.6937C29.5377 10.8649 29.4436 11.0971 29.4436 11.3393V12.2522H15.1579V11.3393C15.1579 11.0972 15.0639 10.8649 14.8964 10.6937C14.729 10.5225 14.5019 10.4263 14.2651 10.4263H10.6936C10.4568 10.4263 10.2297 10.5225 10.0623 10.6937C9.8948 10.8649 9.80078 11.0971 9.80078 11.3393V22.2948C9.80078 22.5369 9.89481 22.7691 10.0623 22.9403C10.2297 23.1116 10.4568 23.2077 10.6936 23.2077V31.4243C10.6936 31.6664 10.7877 31.8987 10.9552 32.0699C11.1226 32.2411 11.3497 32.3373 11.5865 32.3373H33.0151C33.2519 32.3373 33.479 32.2411 33.6464 32.0699C33.8139 31.8987 33.9079 31.6664 33.9079 31.4243V23.2077C34.1447 23.2077 34.3718 23.1116 34.5393 22.9403C34.7068 22.7691 34.8008 22.5369 34.8008 22.2948V11.3393C34.8008 11.0972 34.7068 10.8649 34.5393 10.6937C34.3718 10.5225 34.1447 10.4263 33.9079 10.4263ZM31.2294 12.2522H33.0151V21.3818H31.2294V12.2522ZM29.4436 14.0782V21.3818H25.8722V20.4688C25.8722 19.9846 25.6841 19.5201 25.3491 19.1778C25.0143 18.8353 24.5601 18.6429 24.0865 18.6429H20.5151C20.0415 18.6429 19.5872 18.8353 19.2524 19.1778C18.9175 19.5201 18.7294 19.9846 18.7294 20.4688V21.3818H15.1579V14.0782H29.4436ZM24.0865 24.1207H20.5151V20.4688H24.0865V24.1207ZM11.5865 12.2522H13.3722V21.3818H11.5865V12.2522ZM12.4794 23.2077H14.2651V30.5114H12.4794V23.2077ZM16.0508 23.2077H18.7294V24.1207C18.7294 24.6049 18.9175 25.0694 19.2524 25.4117C19.5872 25.7542 20.0415 25.9466 20.5151 25.9466H21.4079V26.8595C21.4079 27.1857 21.5781 27.4871 21.8544 27.6502C22.1306 27.8133 22.471 27.8133 22.7472 27.6502C23.0234 27.4871 23.1936 27.1857 23.1936 26.8595V25.9466H24.0865C24.5601 25.9466 25.0143 25.7542 25.3491 25.4117C25.684 25.0694 25.8722 24.6049 25.8722 24.1207V23.2077H28.5508V30.5114H16.0508V23.2077ZM32.1222 30.5114H30.3365V23.2077H32.1222V30.5114Z" fill="black"/>
</mask>
<g mask="url(#mask0_19529_10672)">
<path fill-rule="evenodd" clip-rule="evenodd" d="M15.3531 3.56805H4.53125V23.1632H5.20703V40.977H16.0289V21.3818H15.3531V3.56805Z" fill="#FBB603"/>
<path fill-rule="evenodd" clip-rule="evenodd" d="M40.0717 3.56805H28.9219V23.1632H29.6172V40.977H40.767V21.3818H40.0717V3.56805Z" fill="#FBB603"/>
</g>
<rect x="18.8164" y="18.5316" width="6.96864" height="7.48178" rx="3.48432" fill="#FBCF04"/>
<path d="M22.2992 20.313C20.7808 20.313 21.2448 21.7619 21.6665 22.4864C21.1604 24.0913 21.4556 24.2696 21.6665 24.1582C22.0883 24.2139 22.9635 24.2919 23.09 24.1582C23.2166 24.0244 23.0373 22.8764 22.9319 22.3192C23.3536 21.6504 23.8176 20.313 22.2992 20.313Z" fill="#DB8E00"/>
</svg>
