<svg width="88" height="21" viewBox="0 0 88 21" fill="none" xmlns="http://www.w3.org/2000/svg">
<path d="M86.9224 1.53198C86.9224 1.31597 86.7473 1.14085 86.5312 1.14085H0.90625C0.690231 1.14085 0.515121 1.31597 0.515121 1.53198V20.282C0.515121 20.498 0.690231 20.6731 0.90625 20.6731H83.34C83.4699 20.6731 83.5913 20.6086 83.6641 20.501L86.8553 15.7784C86.899 15.7137 86.9224 15.6374 86.9224 15.5594V1.53198Z" stroke="white" stroke-width="0.467736"/>
<rect width="15.4774" height="1.18057" transform="matrix(-1 0 0 1 51.457 19.7263)" fill="white"/>
<path d="M25.1116 11.9588V7.72916C25.1116 6.60567 25.6734 6.04392 26.7969 6.04392H29.903L30.3987 6.42943V6.88103H26.7859C26.2865 6.88103 26.0369 7.1307 26.0369 7.63003V12.0579C26.0369 12.5573 26.2865 12.8069 26.7859 12.8069H30.3987V13.2585L29.903 13.644H26.7969C25.6734 13.644 25.1116 13.0823 25.1116 11.9588ZM32.2751 13.4458L34.7644 6.04392H36.2844L38.7737 13.4458L38.6415 13.644H37.8815L37.2537 11.7275H33.7951L33.1672 13.644H32.4072L32.2751 13.4458ZM34.0704 10.8904H36.9783L35.6566 6.88103H35.3922L34.0704 10.8904ZM41.0855 13.644V6.04392H42.1099L46.1082 12.2121V6.04392H47.0334V13.644H46.0091L42.0107 7.47583V13.644H41.0855ZM50.0044 11.9588V7.72916C50.0044 6.60567 50.5661 6.04392 51.6896 6.04392H54.7958L55.2914 6.42943V6.88103H51.6786C51.1793 6.88103 50.9296 7.1307 50.9296 7.63003V12.0579C50.9296 12.5573 51.1793 12.8069 51.6786 12.8069H55.2914V13.2585L54.7958 13.644H51.6896C50.5661 13.644 50.0044 13.0823 50.0044 11.9588ZM57.9388 13.644V6.04392H62.8954V6.88103H58.864V9.23817H62.565V10.0753H58.864V12.8069H62.8954V13.644H57.9388ZM65.5372 13.644V6.04392H66.4624V12.8069H70.1634V13.644H65.5372Z" fill="white"/>
</svg>
