<svg width="88" height="21" viewBox="0 0 88 21" fill="none" xmlns="http://www.w3.org/2000/svg">
<path d="M87.6021 0.768799C87.6021 0.552783 87.427 0.377667 87.2109 0.377667H1.58594C1.36992 0.377667 1.19481 0.552783 1.19481 0.768799V19.5188C1.19481 19.7348 1.36992 19.9099 1.58594 19.9099H84.0197C84.1496 19.9099 84.271 19.8454 84.3437 19.7378L87.535 15.0152C87.5787 14.9505 87.6021 14.8742 87.6021 14.7962V0.768799Z" stroke="white" stroke-width="0.467736"/>
<rect width="15.4774" height="1.18057" transform="matrix(-1 0 0 1 52.1367 18.9633)" fill="white"/>
<path d="M18.7796 10.9586V6.72892C18.7796 5.60542 19.3414 5.04367 20.4649 5.04367H23.571L24.0667 5.42919V5.88079H20.4538C19.9545 5.88079 19.7048 6.13046 19.7048 6.62979V11.0577C19.7048 11.557 19.9545 11.8067 20.4538 11.8067H24.0667V12.2583L23.571 12.6438H20.4649C19.3414 12.6438 18.7796 12.0821 18.7796 10.9586ZM26.6039 10.9586V6.72892C26.6039 5.60542 27.1656 5.04367 28.2891 5.04367H30.8666C31.9901 5.04367 32.5518 5.60542 32.5518 6.72892V10.9586C32.5518 12.0821 31.9901 12.6438 30.8666 12.6438H28.2891C27.1656 12.6438 26.6039 12.0821 26.6039 10.9586ZM27.5291 11.0577C27.5291 11.557 27.7788 11.8067 28.2781 11.8067H30.8776C31.3769 11.8067 31.6266 11.557 31.6266 11.0577V6.62979C31.6266 6.13046 31.3769 5.88079 30.8776 5.88079H28.2781C27.7788 5.88079 27.5291 6.13046 27.5291 6.62979V11.0577ZM35.5279 12.6438V5.04367H36.4532V11.8067H40.1541V12.6438H35.5279ZM42.5132 12.6438V5.04367H43.4385V11.8067H47.1394V12.6438H42.5132ZM49.4985 12.6438V5.04367H54.4551V5.88079H50.4237V8.23793H54.1247V9.07504H50.4237V11.8067H54.4551V12.6438H49.4985ZM56.9868 10.9586V6.72892C56.9868 5.60542 57.5485 5.04367 58.672 5.04367H61.7781L62.2738 5.42919V5.88079H58.661C58.1617 5.88079 57.912 6.13046 57.912 6.62979V11.0577C57.912 11.557 58.1617 11.8067 58.661 11.8067H62.2738V12.2583L61.7781 12.6438H58.672C57.5485 12.6438 56.9868 12.0821 56.9868 10.9586ZM64.1942 5.88079V5.04367H70.1862V5.88079H67.6528V12.6438H66.7276V5.88079H64.1942Z" fill="white"/>
</svg>
