<svg width="316" height="44" viewBox="0 0 316 44" fill="none" xmlns="http://www.w3.org/2000/svg">
<path d="M0.716797 2.02555C0.716797 1.28758 1.31504 0.689331 2.05302 0.689331H314.381C315.119 0.689331 315.717 1.28758 315.717 2.02555V42.3531C315.717 43.0911 315.119 43.6893 314.381 43.6893H13.8536C13.5293 43.6893 13.2161 43.5714 12.9723 43.3575L1.1717 33.0026C0.882567 32.7489 0.716797 32.3829 0.716797 31.9982V2.02555Z" fill="url(#paint0_linear_15112_2041)"/>
<path d="M127.97 20.1893H126.825C126.757 19.86 126.639 19.5707 126.469 19.3214C126.303 19.0721 126.1 18.8629 125.86 18.6936C125.623 18.5212 125.36 18.392 125.07 18.3058C124.781 18.2196 124.48 18.1765 124.166 18.1765C123.593 18.1765 123.075 18.3212 122.61 18.6105C122.148 18.8998 121.78 19.326 121.507 19.8893C121.236 20.4525 121.1 21.1434 121.1 21.9621C121.1 22.7807 121.236 23.4716 121.507 24.0349C121.78 24.5981 122.148 25.0243 122.61 25.3136C123.075 25.6029 123.593 25.7476 124.166 25.7476C124.48 25.7476 124.781 25.7045 125.07 25.6183C125.36 25.5321 125.623 25.4044 125.86 25.2351C126.1 25.0628 126.303 24.852 126.469 24.6027C126.639 24.3503 126.757 24.061 126.825 23.7348H127.97C127.883 24.218 127.727 24.6504 127.499 25.032C127.271 25.4136 126.988 25.7383 126.649 26.0061C126.311 26.2708 125.931 26.4724 125.509 26.6109C125.09 26.7493 124.643 26.8186 124.166 26.8186C123.359 26.8186 122.642 26.6216 122.014 26.2277C121.387 25.8337 120.893 25.2736 120.532 24.5473C120.172 23.821 119.992 22.9592 119.992 21.9621C119.992 20.9649 120.172 20.1032 120.532 19.3768C120.893 18.6505 121.387 18.0904 122.014 17.6964C122.642 17.3025 123.359 17.1055 124.166 17.1055C124.643 17.1055 125.09 17.1748 125.509 17.3133C125.931 17.4518 126.311 17.6549 126.649 17.9226C126.988 18.1873 127.271 18.5105 127.499 18.8921C127.727 19.2707 127.883 19.7031 127.97 20.1893ZM139.097 21.9621C139.097 22.9592 138.917 23.821 138.557 24.5473C138.197 25.2736 137.703 25.8337 137.075 26.2277C136.447 26.6216 135.73 26.8186 134.924 26.8186C134.117 26.8186 133.4 26.6216 132.772 26.2277C132.145 25.8337 131.651 25.2736 131.291 24.5473C130.93 23.821 130.75 22.9592 130.75 21.9621C130.75 20.9649 130.93 20.1032 131.291 19.3768C131.651 18.6505 132.145 18.0904 132.772 17.6964C133.4 17.3025 134.117 17.1055 134.924 17.1055C135.73 17.1055 136.447 17.3025 137.075 17.6964C137.703 18.0904 138.197 18.6505 138.557 19.3768C138.917 20.1032 139.097 20.9649 139.097 21.9621ZM137.989 21.9621C137.989 21.1434 137.852 20.4525 137.578 19.8893C137.307 19.326 136.94 18.8998 136.475 18.6105C136.013 18.3212 135.496 18.1765 134.924 18.1765C134.351 18.1765 133.833 18.3212 133.368 18.6105C132.906 18.8998 132.538 19.326 132.265 19.8893C131.994 20.4525 131.858 21.1434 131.858 21.9621C131.858 22.7807 131.994 23.4716 132.265 24.0349C132.538 24.5981 132.906 25.0243 133.368 25.3136C133.833 25.6029 134.351 25.7476 134.924 25.7476C135.496 25.7476 136.013 25.6029 136.475 25.3136C136.94 25.0243 137.307 24.5981 137.578 24.0349C137.852 23.4716 137.989 22.7807 137.989 21.9621ZM149.819 17.2348V26.6893H148.711L143.559 19.266H143.467V26.6893H142.322V17.2348H143.43L148.6 24.6765H148.693V17.2348H149.819ZM152.893 18.2504V17.2348H159.984V18.2504H157.011V26.6893H155.866V18.2504H152.893ZM164.196 17.2348V26.6893H163.051V17.2348H164.196ZM175.289 17.2348V26.6893H174.181L169.029 19.266H168.936V26.6893H167.791V17.2348H168.899L174.07 24.6765H174.162V17.2348H175.289ZM185.084 17.2348H186.229V23.4947C186.229 24.141 186.077 24.7181 185.772 25.2259C185.47 25.7306 185.044 26.1292 184.493 26.4216C183.942 26.7109 183.296 26.8555 182.554 26.8555C181.812 26.8555 181.166 26.7109 180.615 26.4216C180.064 26.1292 179.637 25.7306 179.332 25.2259C179.03 24.7181 178.879 24.141 178.879 23.4947V17.2348H180.024V23.4024C180.024 23.864 180.126 24.2749 180.329 24.635C180.532 24.992 180.821 25.2736 181.197 25.4798C181.575 25.6829 182.028 25.7845 182.554 25.7845C183.08 25.7845 183.533 25.6829 183.911 25.4798C184.29 25.2736 184.579 24.992 184.779 24.635C184.982 24.2749 185.084 23.864 185.084 23.4024V17.2348ZM189.815 26.6893V17.2348H195.521V18.2504H190.96V21.445H195.226V22.4606H190.96V25.6737H195.595V26.6893H189.815Z" fill="black"/>
<defs>
<linearGradient id="paint0_linear_15112_2041" x1="0.716797" y1="0.689331" x2="12.2417" y2="85.1161" gradientUnits="userSpaceOnUse">
<stop stop-color="#81FBB8"/>
<stop offset="1" stop-color="#28C76F"/>
</linearGradient>
</defs>
</svg>
