<svg width="187" height="43" viewBox="0 0 187 43" fill="none" xmlns="http://www.w3.org/2000/svg">
<path d="M0.433594 1.33622C0.433594 0.598249 1.03184 0 1.76982 0H184.832C185.57 0 186.169 0.598247 186.169 1.33622V41.4229C186.169 42.1609 185.57 42.7591 184.832 42.7591H8.59262C8.14881 42.7591 7.73396 42.5388 7.48547 42.1711L0.662671 32.0743C0.513374 31.8534 0.433594 31.5928 0.433594 31.3262V1.33622Z" fill="url(#paint0_linear_19529_9142)"/>
<path d="M70.4496 25.8796V16.425H76.1555V17.4407H71.5945V20.6353H75.8601V21.6509H71.5945V24.864H76.2294V25.8796H70.4496ZM87.0163 16.425V25.8796H85.9083L80.7563 18.4563H80.664V25.8796H79.5191V16.425H80.6271L85.7975 23.8668H85.8898V16.425H87.0163ZM90.0901 17.4407V16.425H97.1811V17.4407H94.208V25.8796H93.0632V17.4407H90.0901ZM100.248 25.8796V16.425H105.954V17.4407H101.393V20.6353H105.659V21.6509H101.393V24.864H106.028V25.8796H100.248ZM109.318 25.8796V16.425H112.512C113.251 16.425 113.857 16.5512 114.331 16.8036C114.805 17.0529 115.156 17.396 115.384 17.8331C115.611 18.2701 115.725 18.7671 115.725 19.3242C115.725 19.8812 115.611 20.3752 115.384 20.8061C115.156 21.2369 114.807 21.5755 114.336 21.8217C113.865 22.0648 113.263 22.1864 112.531 22.1864H109.945V21.1523H112.494C112.998 21.1523 113.405 21.0784 113.712 20.9307C114.023 20.783 114.248 20.5737 114.386 20.3029C114.528 20.029 114.599 19.7027 114.599 19.3242C114.599 18.9456 114.528 18.6148 114.386 18.3316C114.245 18.0485 114.019 17.83 113.708 17.6761C113.397 17.5191 112.986 17.4407 112.475 17.4407H110.462V25.8796H109.318ZM113.768 21.6324L116.095 25.8796H114.765L112.475 21.6324H113.768Z" fill="black"/>
<rect x="76.7578" y="40.2351" width="33.0901" height="2.52401" fill="black"/>
<defs>
<linearGradient id="paint0_linear_19529_9142" x1="0.433594" y1="0" x2="19.1303" y2="81.214" gradientUnits="userSpaceOnUse">
<stop stop-color="#81FBB8"/>
<stop offset="1" stop-color="#28C76F"/>
</linearGradient>
</defs>
</svg>
