<svg width="316" height="44" viewBox="0 0 316 44" fill="none" xmlns="http://www.w3.org/2000/svg">
<path d="M0.298828 1.56791C0.298828 0.829937 0.897076 0.231689 1.63505 0.231689H313.963C314.701 0.231689 315.299 0.829937 315.299 1.56791V41.8955C315.299 42.6334 314.701 43.2317 313.963 43.2317H13.4357C13.1114 43.2317 12.7981 43.1137 12.5543 42.8998L0.753727 32.5449C0.464598 32.2912 0.298828 31.9252 0.298828 31.5406V1.56791Z" fill="url(#paint0_linear_15112_2041)"/>
<path d="M134.946 26.2317V16.7771H140.652V17.7928H136.091V20.9874H140.356V22.003H136.091V25.2161H140.725V26.2317H134.946ZM151.512 16.7771V26.2317H150.404L145.252 18.8084H145.16V26.2317H144.015V16.7771H145.123L150.294 24.2189H150.386V16.7771H151.512ZM154.586 17.7928V16.7771H161.677V17.7928H158.704V26.2317H157.559V17.7928H154.586ZM164.744 26.2317V16.7771H170.45V17.7928H165.889V20.9874H170.155V22.003H165.889V25.2161H170.524V26.2317H164.744ZM173.814 26.2317V16.7771H177.008C177.747 16.7771 178.353 16.9033 178.827 17.1557C179.301 17.405 179.652 17.7481 179.88 18.1852C180.107 18.6222 180.221 19.1192 180.221 19.6763C180.221 20.2333 180.107 20.7273 179.88 21.1582C179.652 21.5891 179.303 21.9276 178.832 22.1738C178.361 22.4169 177.759 22.5385 177.027 22.5385H174.441V21.5044H176.99C177.495 21.5044 177.901 21.4306 178.209 21.2828C178.519 21.1351 178.744 20.9258 178.883 20.655C179.024 20.3811 179.095 20.0548 179.095 19.6763C179.095 19.2977 179.024 18.9669 178.883 18.6837C178.741 18.4006 178.515 18.1821 178.204 18.0282C177.893 17.8712 177.482 17.7928 176.971 17.7928H174.959V26.2317H173.814ZM178.264 21.9845L180.591 26.2317H179.261L176.971 21.9845H178.264Z" fill="black"/>
<defs>
<linearGradient id="paint0_linear_15112_2041" x1="0.298828" y1="0.231689" x2="11.8238" y2="84.6584" gradientUnits="userSpaceOnUse">
<stop stop-color="#81FBB8"/>
<stop offset="1" stop-color="#28C76F"/>
</linearGradient>
</defs>
</svg>
