<svg width="25" height="25" viewBox="0 0 25 25" fill="none" xmlns="http://www.w3.org/2000/svg">
<path d="M10.7304 10.3028C10.7445 10.3256 10.7635 10.3452 10.786 10.3603C10.8086 10.3753 10.8342 10.3854 10.861 10.3899C10.8879 10.3944 10.9155 10.3931 10.9418 10.3862C10.9682 10.3794 10.9927 10.367 11.0137 10.35L11.0252 10.341C11.3239 10.0973 11.5927 9.84601 11.8454 9.57826C14.3027 6.96601 12.8676 3.75902 12.8562 3.72902C12.8221 3.6528 12.815 3.56767 12.8358 3.48702C12.8566 3.40637 12.9041 3.33479 12.971 3.28352C13.0407 3.23467 13.1253 3.21051 13.2109 3.21501C13.2965 3.21951 13.378 3.2524 13.442 3.30827C21.7696 10.8938 19.5642 16.6717 19.4034 17.061C18.7372 19.4167 16.0838 21.1215 12.9373 21.2085C12.8316 21.2145 12.752 21.2145 12.6594 21.2145C8.9439 21.2145 5.78516 18.9727 5.78516 16.1092V16.0642C5.78516 12.0915 9.45696 8.17276 9.62083 8.00626C9.66959 7.95155 9.73545 7.91416 9.80817 7.89991C9.88088 7.88567 9.95636 7.89537 10.0229 7.92751C10.1607 7.98451 10.2503 8.11876 10.2457 8.26576C10.2128 9.04276 10.3736 9.71701 10.7289 10.2908V10.302L10.7304 10.3028Z" fill="url(#paint0_linear_19529_10625)"/>
<defs>
<linearGradient id="paint0_linear_19529_10625" x1="2.01809" y1="12.6882" x2="21.5281" y2="12.6882" gradientUnits="userSpaceOnUse">
<stop stop-color="#F9654F"/>
<stop offset="1" stop-color="#FF26E9"/>
</linearGradient>
</defs>
</svg>
