<svg width="376" height="352" viewBox="0 0 376 352" fill="none" xmlns="http://www.w3.org/2000/svg">
<g opacity="0.15" clip-path="url(#clip0_19529_9113)">
<g opacity="0.9">
<path opacity="0.9" d="M176.686 421.808L178.683 422.545C183.423 424.23 189.287 426.152 193.829 427.652C198.37 429.153 204.832 430.627 209.548 431.812C147.917 416.016 95.3427 380.292 53.2734 325.904L65.1007 341.304C66.5729 343.068 67.8953 344.621 69.118 346.043C73.4846 350.834 78.6746 356.415 84.0892 361.838C87.358 364.997 91.4252 368.788 97.0394 374.027C99.9338 376.475 103.327 379.292 106.796 381.925C128.075 398.825 151.633 412.268 176.686 421.808Z" fill="#736F6E"/>
<path opacity="0.9" d="M18.0686 259.616C67.0745 381.662 189.764 428.363 233.081 435.998H233.705C236 436.287 238.87 436.603 241.066 436.84L245.632 437.261H245.956C220.38 434.76 44.5428 380.029 4.96875 211.598C5.41789 214.099 5.84212 216.547 6.26631 218.811C9.21066 230.553 13.752 245.9 17.5197 257.615L18.0686 259.616Z" fill="#736F6E"/>
<path opacity="0.9" d="M261.276 438.288H264.345H271.681C251.395 437.919 -38.9727 321.823 7.9622 85.9456C6.36526 92.5797 4.79329 101.53 3.44587 108.243C2.14836 116.799 1.07543 128.356 0.177153 136.991C-4.6386 348.675 234.702 435.55 261.276 438.288Z" fill="#736F6E"/>
<path opacity="0.9" d="M34.0391 17.7887C-83.9095 257.694 246.481 427.099 286.055 437.63H286.879L288.601 437.498H289.424L295.911 436.84H296.685C249.875 399.3 192.934 378.924 147.821 338.487C125.738 318.743 74.0373 272.463 43.7953 210.598C-16.6637 86.8671 37.1582 7.8903 63.5575 -26.0961L60.8376 -22.7264L56.3213 -17.3823C49.3347 -7.24693 40.5515 6.65298 34.2636 17.3675L34.0391 17.7887Z" fill="#736F6E"/>
<path opacity="0.9" d="M205.434 -118.051H205.908L204.636 -117.735C201.716 -117.051 197.824 -115.945 194.929 -115.103C188.941 -113.339 181.031 -110.759 175.217 -108.443C171.674 -107.021 166.908 -105.152 163.415 -103.572C159.223 -101.677 153.709 -98.9653 149.591 -96.9382C145.474 -94.9111 139.835 -91.6731 135.818 -89.2775C131.077 -86.3553 125.238 -82.5644 120.023 -79.0368C66.6257 -40.2855 24.4567 21.922 30.1957 92.0797C43.9692 257.51 221.528 370.973 288.375 413.673C311.506 428.468 311.506 428.468 312.853 434.26H313.302C316.97 433.549 321.586 432.522 325.229 431.627H325.604C326.926 431.154 327.874 429.179 328.748 428.074C325.728 421.913 319.765 417.543 287.602 395.245C204.91 338.093 121.695 272.357 73.0134 179.191C-36.6012 -31.0715 176.016 -139.849 267.091 -114.234C249.624 -121.684 228.166 -122.5 205.434 -118.051Z" fill="#736F6E"/>
<path opacity="0.9" d="M297.88 371.473C348.183 408.987 360.26 417.912 344.266 426.204L344.79 426.046L352.749 423.414L358.289 421.334C380.746 410.304 361.183 395.008 314.273 358.6C262.373 318.296 197.772 268.119 142.952 194.723C-18.8375 -21.9367 153.856 -129.082 267.288 -114.392C138.386 -143.877 -138.982 45.7992 297.88 371.473Z" fill="#736F6E"/>
<path opacity="0.9" d="M327.473 329.3C386.135 376.686 408.143 394.561 379.024 412.252L379.697 411.936C384.688 409.461 390.651 406.092 395.317 403.564C418.049 389.559 408.966 373.29 395.767 357.81C340.573 293.049 267.263 250.139 210.722 187.01C28.746 -16.2766 150.837 -117.314 267.288 -114.498C148.641 -125.923 -63.4521 13.1027 327.473 329.3Z" fill="#736F6E"/>
<path opacity="0.9" d="M372.813 290.022C428.731 337.408 448.642 362.707 418.825 388.243C423.815 384.452 430.402 379.108 435.467 375.08C437.963 372.842 440.707 370.447 443.277 368.077C466.483 345.648 453.458 333.538 297.383 188.51C71.1419 -21.7261 173.096 -95.9644 246.83 -111.47C179.933 -98.4126 -6.509 -30.6768 372.813 290.022Z" fill="#736F6E"/>
<path opacity="0.9" d="M362.381 197.461C455.128 276.201 489.961 312.241 459.694 351.36L460.293 350.702C465.034 345.437 470.748 338.198 475.264 332.775L475.539 332.406C501.938 295.866 476.711 257.457 367.82 168.187C83.7656 -64.6633 234.252 -108.232 267.288 -114.498C243.209 -111.286 41.3468 -75.2199 362.381 197.461Z" fill="#736F6E"/>
<path opacity="0.9" d="M381.57 134.464C486.519 217.179 515.414 259.458 495.776 301.763C496.575 300.368 497.348 299.131 498.097 297.63L498.845 296.288C499.369 295.313 499.868 294.392 500.342 293.471L506.356 281.308C507.08 279.729 507.803 278.175 508.477 276.675C531.932 219.996 443.152 151.813 384.216 106.559C192.234 -40.8647 214.541 -94.9902 267.29 -114.576C222.376 -102.124 143.652 -53.1061 381.57 134.464Z" fill="#736F6E"/>
<path opacity="0.9" d="M386.711 70.2555C478.335 138.36 533.23 183.903 521.802 240.74C522.351 238.818 522.899 236.897 523.423 235.001C525.27 227.92 527.092 219.943 528.564 213.598C536.424 156.946 481.155 113.772 389.955 48.0367C329.795 4.62571 217.785 -76.1939 267.29 -114.498C189.714 -76.1676 337.98 34.0314 386.711 70.2555Z" fill="#736F6E"/>
<path opacity="0.9" d="M393.423 20.1579C496.675 90.8421 531.757 122.828 533.604 171.557C533.604 170.609 533.604 169.635 533.778 168.687L534.103 156.788L533.853 145.284C533.853 143.941 533.729 142.651 533.679 141.335C529.711 90.2893 465.185 48.1683 383.617 -5.00943C326.227 -42.4181 261.202 -84.8287 267.29 -114.498C240.442 -84.5128 332.49 -21.5156 393.423 20.1579Z" fill="#736F6E"/>
<path opacity="0.9" d="M386.759 -24.938C481.851 32.0307 517.658 59.6726 528.986 101.425C527.564 94.2118 525.243 85.0505 523.297 77.3107C522.848 75.7049 522.423 74.1253 521.949 72.5195C506.504 30.1089 454.579 -0.349823 364.751 -50.2895C301.123 -85.5922 280.188 -99.4131 267.238 -114.498C274.699 -92.0683 321.709 -63.8999 386.759 -24.938Z" fill="#736F6E"/>
<path opacity="0.9" d="M508.426 35.7428C508.027 34.9004 507.653 34.058 507.253 33.1102L501.839 21.8429L498.196 15.1035L496.15 11.418C483.873 -8.66849 461.716 -23.6478 429.977 -41.2333C377.577 -70.1915 321.31 -89.6724 267.289 -114.655C284.157 -103.335 315.122 -88.3298 354.322 -69.3491C458.297 -18.7775 490.486 3.02006 508.426 35.7428Z" fill="#736F6E"/>
</g>
<g filter="url(#filter0_f_19529_9113)">
<ellipse cx="9.10156" cy="362.84" rx="347" ry="343.5" fill="#0F111E"/>
</g>
</g>
<defs>
<filter id="filter0_f_19529_9113" x="-477.898" y="-120.66" width="974" height="967" filterUnits="userSpaceOnUse" color-interpolation-filters="sRGB">
<feFlood flood-opacity="0" result="BackgroundImageFix"/>
<feBlend mode="normal" in="SourceGraphic" in2="BackgroundImageFix" result="shape"/>
<feGaussianBlur stdDeviation="70" result="effect1_foregroundBlur_19529_9113"/>
</filter>
<clipPath id="clip0_19529_9113">
<rect width="534" height="477" fill="white" transform="translate(0.101562 -125.66)"/>
</clipPath>
</defs>
</svg>
