<svg width="376" height="351" viewBox="0 0 376 351" fill="none" xmlns="http://www.w3.org/2000/svg">
<g opacity="0.15" clip-path="url(#clip0_19529_9113)">
<g opacity="0.9">
<path opacity="0.9" d="M177.304 420.968L179.3 421.705C184.041 423.39 189.904 425.311 194.446 426.812C198.987 428.312 205.45 429.787 210.166 430.971C148.534 415.176 95.9599 379.452 53.8906 325.063L65.7179 340.464C67.1901 342.228 68.5125 343.781 69.7352 345.202C74.1018 349.994 79.2918 355.575 84.7064 360.998C87.9751 364.157 92.0423 367.948 97.6566 373.187C100.551 375.635 103.944 378.452 107.413 381.084C128.692 397.985 152.25 411.428 177.304 420.968Z" fill="#736F6E"/>
<path opacity="0.9" d="M18.6858 258.776C67.6917 380.821 190.381 427.523 233.698 435.157H234.322C236.618 435.447 239.487 435.763 241.683 436L246.249 436.421H246.573C220.997 433.92 45.16 379.189 5.58594 210.758C6.03508 213.259 6.45931 215.707 6.8835 217.971C9.82784 229.712 14.3692 245.06 18.1369 256.775L18.6858 258.776Z" fill="#736F6E"/>
<path opacity="0.9" d="M261.893 437.447H264.962H272.298C252.012 437.079 -38.3555 320.983 8.57939 85.1053C6.98245 91.7393 5.41047 100.69 4.06306 107.403C2.76555 115.959 1.69262 127.516 0.79434 136.151C-4.02142 347.835 235.319 434.71 261.893 437.447Z" fill="#736F6E"/>
<path opacity="0.9" d="M34.6563 16.9484C-83.2923 256.854 247.099 426.259 286.673 436.789H287.496L289.218 436.658H290.041L296.529 436H297.302C250.492 398.459 193.551 378.083 148.438 337.647C126.355 317.903 74.6544 271.622 44.4125 209.757C-16.0465 86.0268 37.7753 7.04996 64.1747 -26.9364L61.4548 -23.5667L56.9385 -18.2226C49.9519 -8.08727 41.1687 5.81265 34.8808 16.5272L34.6563 16.9484Z" fill="#736F6E"/>
<path opacity="0.9" d="M206.051 -118.892H206.526L205.253 -118.576C202.334 -117.891 198.441 -116.786 195.547 -115.943C189.558 -114.179 181.648 -111.6 175.834 -109.283C172.291 -107.861 167.525 -105.992 164.032 -104.413C159.84 -102.517 154.326 -99.8056 150.209 -97.7786C146.092 -95.7515 140.452 -92.5134 136.435 -90.1178C131.694 -87.1956 125.855 -83.4048 120.64 -79.8771C67.2429 -41.1258 25.0739 21.0816 30.8128 91.2394C44.5864 256.67 222.146 370.133 288.992 412.833C312.123 427.628 312.123 427.628 313.47 433.42H313.919C317.587 432.709 322.204 431.682 325.847 430.787H326.221C327.543 430.313 328.491 428.339 329.365 427.233C326.345 421.073 320.382 416.703 288.219 394.405C205.527 337.252 122.312 271.517 73.6306 178.351C-35.984 -31.9119 176.633 -140.689 267.708 -115.074C250.242 -122.525 228.783 -123.341 206.051 -118.892Z" fill="#736F6E"/>
<path opacity="0.9" d="M298.497 370.633C348.8 408.147 360.877 417.071 344.883 425.364L345.407 425.206L353.366 422.573L358.906 420.494C381.363 409.463 361.8 394.168 314.89 357.76C262.99 317.455 198.389 267.279 143.569 193.883C-18.2203 -22.777 154.473 -129.922 267.906 -115.233C139.003 -144.717 -138.365 44.9588 298.497 370.633Z" fill="#736F6E"/>
<path opacity="0.9" d="M328.09 328.459C386.752 375.845 408.76 393.721 379.641 411.411L380.314 411.096C385.305 408.621 391.268 405.251 395.935 402.724C418.666 388.719 409.583 372.449 396.384 356.97C341.19 292.209 267.88 249.298 211.339 186.169C29.3632 -17.117 151.454 -118.155 267.905 -115.338C149.258 -126.763 -62.8349 12.2624 328.09 328.459Z" fill="#736F6E"/>
<path opacity="0.9" d="M373.43 289.182C429.348 336.568 449.26 361.867 419.442 387.402C424.432 383.612 431.019 378.267 436.085 374.24C438.58 372.002 441.325 369.606 443.895 367.237C467.1 344.808 454.075 332.698 298 187.67C71.759 -22.5665 173.713 -96.8047 247.447 -112.31C180.55 -99.253 -5.89182 -31.5171 373.43 289.182Z" fill="#736F6E"/>
<path opacity="0.9" d="M362.998 196.621C455.745 275.36 490.578 311.4 460.311 350.52L460.91 349.862C465.651 344.597 471.365 337.357 475.881 331.934L476.156 331.566C502.555 295.026 477.328 256.617 368.438 167.346C84.3828 -65.5036 234.869 -109.073 267.905 -115.338C243.827 -112.126 41.964 -76.0602 362.998 196.621Z" fill="#736F6E"/>
<path opacity="0.9" d="M382.188 133.624C487.136 216.339 516.031 258.618 496.394 300.923C497.192 299.528 497.966 298.29 498.714 296.79L499.463 295.447C499.987 294.473 500.486 293.552 500.96 292.63L506.973 280.468C507.697 278.888 508.42 277.335 509.094 275.835C532.549 219.155 443.77 150.972 384.833 105.718C192.851 -41.705 215.158 -95.8305 267.907 -115.417C222.993 -102.965 144.269 -53.9464 382.188 133.624Z" fill="#736F6E"/>
<path opacity="0.9" d="M387.328 69.4151C478.952 137.52 533.847 183.063 522.419 239.9C522.968 237.978 523.517 236.056 524.041 234.161C525.887 227.079 527.709 219.103 529.181 212.758C537.041 156.105 481.772 112.931 390.572 47.1963C330.412 3.78538 218.402 -77.0342 267.907 -115.338C190.331 -77.0079 338.597 33.1911 387.328 69.4151Z" fill="#736F6E"/>
<path opacity="0.9" d="M394.04 19.3175C497.292 90.0018 532.375 121.987 534.221 170.716C534.221 169.768 534.221 168.794 534.396 167.847L534.72 155.948L534.471 144.443C534.471 143.101 534.346 141.811 534.296 140.494C530.329 89.449 465.802 47.328 384.234 -5.84976C326.844 -43.2585 261.819 -85.669 267.907 -115.338C241.059 -85.3531 333.107 -22.3559 394.04 19.3175Z" fill="#736F6E"/>
<path opacity="0.9" d="M387.376 -25.7783C482.469 31.1903 518.275 58.8322 529.603 100.585C528.181 93.3714 525.86 84.2101 523.914 76.4704C523.465 74.8645 523.041 73.285 522.566 71.6791C507.121 29.2686 455.196 -1.19016 365.368 -51.1298C301.74 -86.4325 280.806 -100.253 267.855 -115.338C275.316 -92.9086 322.326 -64.7402 387.376 -25.7783Z" fill="#736F6E"/>
<path opacity="0.9" d="M509.043 34.9025C508.644 34.06 508.27 33.2176 507.871 32.2699L502.456 21.0025L498.813 14.2632L496.767 10.5776C484.491 -9.50882 462.333 -24.4881 430.594 -42.0736C378.195 -71.0318 321.928 -90.5128 267.906 -115.496C284.774 -104.176 315.739 -89.1702 354.939 -70.1894C458.915 -19.6179 491.103 2.17973 509.043 34.9025Z" fill="#736F6E"/>
</g>
<g filter="url(#filter0_f_19529_9113)">
<ellipse cx="9.71875" cy="362" rx="347" ry="343.5" fill="#0F111E"/>
</g>
</g>
<defs>
<filter id="filter0_f_19529_9113" x="-477.281" y="-121.5" width="974" height="967" filterUnits="userSpaceOnUse" color-interpolation-filters="sRGB">
<feFlood flood-opacity="0" result="BackgroundImageFix"/>
<feBlend mode="normal" in="SourceGraphic" in2="BackgroundImageFix" result="shape"/>
<feGaussianBlur stdDeviation="70" result="effect1_foregroundBlur_19529_9113"/>
</filter>
<clipPath id="clip0_19529_9113">
<rect width="534" height="477" fill="white" transform="translate(0.71875 -126.5)"/>
</clipPath>
</defs>
</svg>
