<svg width="186" height="43" viewBox="0 0 186 43" fill="none" xmlns="http://www.w3.org/2000/svg">
<path d="M0.21875 1.48417C0.21875 0.746198 0.816998 0.147949 1.55497 0.147949H184.618C185.356 0.147949 185.954 0.746197 185.954 1.48417V41.5709C185.954 42.3088 185.356 42.9071 184.618 42.9071H8.37778C7.93397 42.9071 7.51911 42.6867 7.27063 42.319L0.447828 32.2223C0.29853 32.0013 0.21875 31.7408 0.21875 31.4741V1.48417Z" fill="url(#paint0_linear_19956_18660)"/>
<path d="M63.7308 26.0276V16.573H64.8757V25.012H69.2706V26.0276H63.7308ZM79.9524 21.3003C79.9524 22.2975 79.7724 23.1592 79.4123 23.8855C79.0522 24.6119 78.5583 25.172 77.9304 25.5659C77.3026 25.9599 76.5855 26.1568 75.7791 26.1568C74.9728 26.1568 74.2557 25.9599 73.6279 25.5659C73 25.172 72.5061 24.6119 72.146 23.8855C71.7859 23.1592 71.6058 22.2975 71.6058 21.3003C71.6058 20.3032 71.7859 19.4414 72.146 18.7151C72.5061 17.9888 73 17.4286 73.6279 17.0347C74.2557 16.6408 74.9728 16.4438 75.7791 16.4438C76.5855 16.4438 77.3026 16.6408 77.9304 17.0347C78.5583 17.4286 79.0522 17.9888 79.4123 18.7151C79.7724 19.4414 79.9524 20.3032 79.9524 21.3003ZM78.8445 21.3003C78.8445 20.4817 78.7075 19.7907 78.4336 19.2275C78.1628 18.6643 77.795 18.2381 77.3303 17.9488C76.8686 17.6595 76.3516 17.5148 75.7791 17.5148C75.2067 17.5148 74.6881 17.6595 74.2234 17.9488C73.7617 18.2381 73.394 18.6643 73.12 19.2275C72.8492 19.7907 72.7138 20.4817 72.7138 21.3003C72.7138 22.119 72.8492 22.8099 73.12 23.3731C73.394 23.9363 73.7617 24.3626 74.2234 24.6519C74.6881 24.9412 75.2067 25.0858 75.7791 25.0858C76.3516 25.0858 76.8686 24.9412 77.3303 24.6519C77.795 24.3626 78.1628 23.9363 78.4336 23.3731C78.7075 22.8099 78.8445 22.119 78.8445 21.3003ZM89.6406 19.5276C89.539 19.2167 89.4051 18.9382 89.2389 18.692C89.0758 18.4427 88.8804 18.2304 88.6526 18.0549C88.428 17.8795 88.1725 17.7456 87.8863 17.6533C87.6001 17.561 87.2862 17.5148 86.9445 17.5148C86.3844 17.5148 85.8751 17.6595 85.4165 17.9488C84.9579 18.2381 84.5932 18.6643 84.3224 19.2275C84.0516 19.7907 83.9161 20.4817 83.9161 21.3003C83.9161 22.119 84.0531 22.8099 84.327 23.3731C84.6009 23.9363 84.9718 24.3626 85.4396 24.6519C85.9074 24.9412 86.4337 25.0858 87.0184 25.0858C87.5601 25.0858 88.0371 24.9704 88.4495 24.7396C88.865 24.5057 89.1882 24.1764 89.419 23.7517C89.6529 23.3239 89.7698 22.8207 89.7698 22.2421L90.1207 22.3159H87.2769V21.3003H90.8778V22.3159C90.8778 23.0946 90.7116 23.7717 90.3792 24.3472C90.0499 24.9227 89.5944 25.369 89.0127 25.686C88.4341 25.9999 87.7694 26.1568 87.0184 26.1568C86.1813 26.1568 85.4457 25.9599 84.8117 25.5659C84.1808 25.172 83.6884 24.6119 83.3345 23.8855C82.9836 23.1592 82.8082 22.2975 82.8082 21.3003C82.8082 20.5524 82.9082 19.88 83.1083 19.2829C83.3114 18.6828 83.5976 18.1719 83.9669 17.7502C84.3362 17.3286 84.7733 17.0055 85.278 16.7808C85.7827 16.5561 86.3383 16.4438 86.9445 16.4438C87.4431 16.4438 87.9079 16.5192 88.3387 16.67C88.7727 16.8177 89.1589 17.0285 89.4975 17.3024C89.8391 17.5733 90.1238 17.898 90.3515 18.2765C90.5793 18.652 90.7362 19.069 90.8224 19.5276H89.6406ZM102.116 21.3003C102.116 22.2975 101.936 23.1592 101.576 23.8855C101.216 24.6119 100.722 25.172 100.094 25.5659C99.4661 25.9599 98.749 26.1568 97.9426 26.1568C97.1363 26.1568 96.4192 25.9599 95.7913 25.5659C95.1635 25.172 94.6695 24.6119 94.3094 23.8855C93.9494 23.1592 93.7693 22.2975 93.7693 21.3003C93.7693 20.3032 93.9494 19.4414 94.3094 18.7151C94.6695 17.9888 95.1635 17.4286 95.7913 17.0347C96.4192 16.6408 97.1363 16.4438 97.9426 16.4438C98.749 16.4438 99.4661 16.6408 100.094 17.0347C100.722 17.4286 101.216 17.9888 101.576 18.7151C101.936 19.4414 102.116 20.3032 102.116 21.3003ZM101.008 21.3003C101.008 20.4817 100.871 19.7907 100.597 19.2275C100.326 18.6643 99.9585 18.2381 99.4937 17.9488C99.0321 17.6595 98.5151 17.5148 97.9426 17.5148C97.3702 17.5148 96.8516 17.6595 96.3869 17.9488C95.9252 18.2381 95.5574 18.6643 95.2835 19.2275C95.0127 19.7907 94.8773 20.4817 94.8773 21.3003C94.8773 22.119 95.0127 22.8099 95.2835 23.3731C95.5574 23.9363 95.9252 24.3626 96.3869 24.6519C96.8516 24.9412 97.3702 25.0858 97.9426 25.0858C98.5151 25.0858 99.0321 24.9412 99.4937 24.6519C99.9585 24.3626 100.326 23.9363 100.597 23.3731C100.871 22.8099 101.008 22.119 101.008 21.3003ZM111.546 16.573H112.69V22.833C112.69 23.4793 112.538 24.0564 112.233 24.5642C111.932 25.0689 111.506 25.4675 110.955 25.7598C110.404 26.0491 109.757 26.1938 109.016 26.1938C108.274 26.1938 107.628 26.0491 107.077 25.7598C106.526 25.4675 106.098 25.0689 105.793 24.5642C105.492 24.0564 105.341 23.4793 105.341 22.833V16.573H106.486V22.7407C106.486 23.2023 106.587 23.6132 106.791 23.9733C106.994 24.3303 107.283 24.6119 107.658 24.8181C108.037 25.0212 108.489 25.1228 109.016 25.1228C109.542 25.1228 109.994 25.0212 110.373 24.8181C110.751 24.6119 111.041 24.3303 111.241 23.9733C111.444 23.6132 111.546 23.2023 111.546 22.7407V16.573ZM115.76 17.5887V16.573H122.851V17.5887H119.878V26.0276H118.733V17.5887H115.76Z" fill="black"/>
<rect x="76.543" y="40.3831" width="33.0901" height="2.52401" fill="black"/>
<defs>
<linearGradient id="paint0_linear_19956_18660" x1="0.21875" y1="0.147949" x2="18.9155" y2="81.3619" gradientUnits="userSpaceOnUse">
<stop stop-color="#81FBB8"/>
<stop offset="1" stop-color="#28C76F"/>
</linearGradient>
</defs>
</svg>
