<svg width="316" height="44" viewBox="0 0 316 44" fill="none" xmlns="http://www.w3.org/2000/svg">
<path d="M0.716797 2.02568C0.716797 1.2877 1.31504 0.689453 2.05302 0.689453H314.381C315.119 0.689453 315.717 1.2877 315.717 2.02568V42.3532C315.717 43.0912 315.119 43.6895 314.381 43.6895H13.8536C13.5293 43.6895 13.2161 43.5715 12.9723 43.3576L1.1717 33.0027C0.882567 32.749 0.716797 32.383 0.716797 31.9983V2.02568Z" fill="url(#paint0_linear_15112_2041)"/>
<path d="M147.839 21.9622C147.839 22.9593 147.659 23.8211 147.299 24.5474C146.939 25.2737 146.445 25.8339 145.817 26.2278C145.189 26.6217 144.472 26.8187 143.666 26.8187C142.859 26.8187 142.142 26.6217 141.514 26.2278C140.887 25.8339 140.393 25.2737 140.032 24.5474C139.672 23.8211 139.492 22.9593 139.492 21.9622C139.492 20.965 139.672 20.1033 140.032 19.377C140.393 18.6506 140.887 18.0905 141.514 17.6966C142.142 17.3026 142.859 17.1056 143.666 17.1056C144.472 17.1056 145.189 17.3026 145.817 17.6966C146.445 18.0905 146.939 18.6506 147.299 19.377C147.659 20.1033 147.839 20.965 147.839 21.9622ZM146.731 21.9622C146.731 21.1435 146.594 20.4526 146.32 19.8894C146.049 19.3262 145.682 18.8999 145.217 18.6106C144.755 18.3213 144.238 18.1767 143.666 18.1767C143.093 18.1767 142.575 18.3213 142.11 18.6106C141.648 18.8999 141.28 19.3262 141.007 19.8894C140.736 20.4526 140.6 21.1435 140.6 21.9622C140.6 22.7808 140.736 23.4718 141.007 24.035C141.28 24.5982 141.648 25.0244 142.11 25.3137C142.575 25.603 143.093 25.7477 143.666 25.7477C144.238 25.7477 144.755 25.603 145.217 25.3137C145.682 25.0244 146.049 24.5982 146.32 24.035C146.594 23.4718 146.731 22.7808 146.731 21.9622ZM151.064 26.6895V17.2349H152.209V21.9252H152.32L156.567 17.2349H158.063L154.092 21.5005L158.063 26.6895H156.678L153.391 22.2946L152.209 23.6241V26.6895H151.064ZM161.232 26.6895H160.032L163.504 17.2349H164.685L168.157 26.6895H166.957L164.131 18.7306H164.058L161.232 26.6895ZM161.675 22.9963H166.514V24.0119H161.675V22.9963ZM169.152 17.2349H170.463L173.086 21.6483H173.196L175.819 17.2349H177.13L173.713 22.7931V26.6895H172.569V22.7931L169.152 17.2349Z" fill="black"/>
<defs>
<linearGradient id="paint0_linear_15112_2041" x1="0.716797" y1="0.689453" x2="12.2417" y2="85.1162" gradientUnits="userSpaceOnUse">
<stop stop-color="#81FBB8"/>
<stop offset="1" stop-color="#28C76F"/>
</linearGradient>
</defs>
</svg>
