<svg width="37" height="37" viewBox="0 0 37 37" fill="none" xmlns="http://www.w3.org/2000/svg">
<rect x="0.71875" y="0.689331" width="36" height="36" rx="8" fill="#F5F5FA"/>
<g clip-path="url(#clip0_19539_12034)">
<path d="M9.49374 25.6226C12.0425 23.3659 15.0692 19.8068 17.1364 14.5241L23.1965 17.9562C20.8661 23.9466 14.6344 26.5918 10.0079 27.7477C9.69817 27.5526 9.49374 27.2091 9.49374 26.8175V25.6226Z" fill="url(#paint0_linear_19539_12034)" fill-opacity="0.4" stroke="url(#paint1_linear_19539_12034)" stroke-width="0.3"/>
<path d="M10.7914 26.532C10.7905 26.5317 10.7896 26.5316 10.7888 26.5315C10.7875 26.5315 10.7881 26.5318 10.7909 26.5309C10.7911 26.5308 10.7914 26.5308 10.7916 26.5307L10.7917 26.531C10.7917 26.5309 10.7918 26.5308 10.7918 26.5308C10.7918 26.5307 10.7918 26.5307 10.7918 26.5306L10.7914 26.532ZM10.7914 26.532C10.791 26.5328 10.7906 26.5336 10.7902 26.5343C10.7899 26.5347 10.7897 26.5349 10.7897 26.5349C10.7897 26.5349 10.7904 26.5342 10.7922 26.5329L10.8391 26.673L10.7914 26.532ZM19.1529 15.1796C19.1891 15.052 19.218 14.9444 19.2402 14.8589L22.1233 17.2303C22.0983 17.277 22.0647 17.3386 22.0223 17.4138C21.9163 17.6014 21.7556 17.8734 21.5371 18.2087C21.1002 18.8794 20.4329 19.8029 19.513 20.8111C17.6743 22.8265 14.829 25.1777 10.7991 26.5282C10.8763 26.475 10.9598 26.418 11.0489 26.3571C12.3454 25.4721 14.8376 23.7707 16.4582 21.1982L16.4582 21.1982C17.5238 19.5057 18.2333 17.8639 18.6763 16.6453C18.8979 16.0359 19.0531 15.5318 19.1529 15.1796Z" stroke="url(#paint2_linear_19539_12034)" stroke-width="0.3"/>
<path d="M16.9625 18.1565C16.9156 18.944 16.4766 20.8815 16.4766 20.8815C16.3625 21.5221 16.9453 21.6784 17.3406 21.4784C18.4641 20.9096 19.6578 20.1096 20.3922 20.0471C21.2672 19.9721 21.3703 20.9128 21.3578 21.4159C22.1828 20.3878 22.8781 19.2175 23.3828 17.8831L17.0594 14.3018C15.0531 19.5143 12.1047 23.0565 9.58593 25.3315L9.34375 25.5471V25.9159C12.9547 23.3628 14.7578 20.4471 15.8078 18.9206C16.4719 17.9565 17 17.53 16.9625 18.1565Z" fill="url(#paint3_linear_19539_12034)"/>
<path d="M24.2424 22.7773L20.9132 20.558C20.6573 20.3878 20.3339 20.3755 20.066 20.5232L16.6436 22.4348C16.2428 22.6296 15.8004 22.2666 15.8936 21.8195L16.9769 18.0393C17.0642 17.7337 16.9809 17.4034 16.7607 17.1799L13.862 14.2406C13.5585 13.9063 13.7569 13.3587 14.1973 13.3135L18.1098 13.09C18.4094 13.0736 18.6792 12.889 18.8121 12.61L20.5402 8.97341C20.7525 8.57139 21.3179 8.59805 21.4965 9.01648L22.9805 12.9238C23.0936 13.2212 23.3555 13.4284 23.6611 13.4653L27.4485 13.9125C27.883 13.9986 28.0338 14.5606 27.7045 14.8662L24.665 17.3768C24.4269 17.5737 24.3118 17.8875 24.3634 18.1972L25.0399 22.2317C25.0975 22.685 24.6253 23.007 24.2424 22.7773Z" fill="url(#paint4_linear_19539_12034)"/>
<path d="M20.3992 12.8279L20.7482 9.96188C20.7727 9.80259 20.7994 9.52878 21.0515 9.58527C21.2511 9.63012 21.2647 10.0661 21.2647 10.0661L21.6044 12.5048C21.7328 13.433 21.5329 13.6957 21.187 13.8001C20.785 13.9199 20.2993 13.6475 20.3992 12.8279Z" fill="#F6FF8D"/>
<path d="M17.8814 19.752L16.7205 21.7553C16.6643 21.8587 16.5587 22.0316 16.7309 22.1099C16.8667 22.1712 17.0688 21.9239 17.0688 21.9239L18.3174 20.7471C18.6976 20.4166 18.9005 20.0721 18.8111 19.7763C18.6905 19.3832 18.2328 19.2274 17.8814 19.752Z" fill="#FFB8EF"/>
</g>
<defs>
<linearGradient id="paint0_linear_19539_12034" x1="21.4337" y1="15.3268" x2="9.26658" y2="29.2714" gradientUnits="userSpaceOnUse">
<stop stop-color="#FFAFED"/>
<stop offset="1" stop-color="#F9AFFF" stop-opacity="0.1"/>
</linearGradient>
<linearGradient id="paint1_linear_19539_12034" x1="23.3828" y1="27.9081" x2="9.78968" y2="13.8761" gradientUnits="userSpaceOnUse">
<stop stop-color="#81FBB8"/>
<stop offset="1" stop-color="#28C76F"/>
</linearGradient>
<linearGradient id="paint2_linear_19539_12034" x1="22.3125" y1="26.6815" x2="10.2302" y2="15.0184" gradientUnits="userSpaceOnUse">
<stop stop-color="#81FBB8"/>
<stop offset="1" stop-color="#28C76F"/>
</linearGradient>
<linearGradient id="paint3_linear_19539_12034" x1="15.3347" y1="26.7605" x2="17.9867" y2="13.7532" gradientUnits="userSpaceOnUse">
<stop offset="0.00522122" stop-color="#AB4444" stop-opacity="0"/>
<stop offset="1" stop-color="#3949AB"/>
</linearGradient>
<linearGradient id="paint4_linear_19539_12034" x1="27.8828" y1="22.8534" x2="13.7161" y2="8.68672" gradientUnits="userSpaceOnUse">
<stop stop-color="#81FBB8"/>
<stop offset="1" stop-color="#28C76F"/>
</linearGradient>
<clipPath id="clip0_19539_12034">
<rect width="20" height="20" fill="white" transform="matrix(-1 0 0 -1 28.7188 28.6893)"/>
</clipPath>
</defs>
</svg>
