<svg width="98" height="13" viewBox="0 0 98 13" fill="none" xmlns="http://www.w3.org/2000/svg">
<path opacity="0.6" d="M1.38703 11.0816H0.420884L1.77896 4.68315H2.73599L2.57193 5.43054H2.59015C2.89549 4.92924 3.47883 4.60111 4.09862 4.60111C5.16958 4.60111 5.83495 5.38953 5.83495 6.61544C5.83495 8.31531 4.805 9.57312 3.45148 9.57312C2.71776 9.57312 2.13443 9.15385 1.94758 8.55684H1.92479L1.38703 11.0816ZM3.35578 8.69812C4.20799 8.69812 4.85969 7.86414 4.85969 6.73393C4.85969 5.94096 4.45864 5.45789 3.78417 5.45789C2.83625 5.45789 2.23013 6.41036 2.23013 7.48132C2.23013 8.19682 2.67219 8.69812 3.35578 8.69812ZM8.55601 4.58744C9.80927 4.58744 10.625 5.4351 10.625 6.72026C10.625 8.34265 9.54039 9.58223 8.09117 9.58223C6.83336 9.58223 6.02216 8.73458 6.02216 7.45398C6.02216 5.83158 7.1068 4.58744 8.55601 4.58744ZM8.10484 8.72091C8.98896 8.72091 9.63154 7.86869 9.63154 6.7476C9.63154 5.96374 9.20771 5.44877 8.53779 5.44877C7.65367 5.44877 7.01109 6.30098 7.01109 7.42664C7.01109 8.21049 7.43948 8.72091 8.10484 8.72091ZM17.6163 4.68315L15.3103 9.49109H14.2803L14.0479 5.91361H14.0297L12.3161 9.49109H11.2589L10.9626 4.68315H11.8741L12.0154 8.40645H12.0336L13.779 4.68315H14.7406L14.9411 8.40645H14.9594L16.6365 4.68315H17.6163ZM19.0795 9.59135C17.767 9.59135 17.0561 8.71179 17.0561 7.44942C17.0561 5.85437 18.0541 4.58744 19.4942 4.58744C20.7019 4.58744 21.4721 5.37585 21.4721 6.62911C21.4721 6.8433 21.463 7.10307 21.422 7.32182H18.0131C18.004 7.37651 18.004 7.43119 18.004 7.48132C18.004 8.26062 18.4324 8.75281 19.1069 8.75281C19.6993 8.75281 20.1232 8.45203 20.3146 7.98718H21.2579C21.0073 8.90776 20.1551 9.59135 19.0795 9.59135ZM18.1225 6.60632H20.5105C20.5151 6.56986 20.5196 6.51518 20.5196 6.47416C20.5196 5.92273 20.2006 5.41687 19.4715 5.41687C18.7787 5.41687 18.3002 5.92729 18.1225 6.60632ZM21.3631 9.49109L22.3794 4.68315H23.3136L23.1815 5.33484H23.2042C23.4868 4.89734 23.9243 4.61023 24.5122 4.61023C24.7537 4.61023 24.9634 4.66492 25.0864 4.72416L24.8859 5.67208C24.7583 5.61283 24.4985 5.55359 24.2615 5.55359C23.5005 5.55359 23.0903 5.97742 22.9126 6.78406L22.3384 9.49109H21.3631ZM26.5816 9.59135C25.2691 9.59135 24.5581 8.71179 24.5581 7.44942C24.5581 5.85437 25.5562 4.58744 26.9963 4.58744C28.204 4.58744 28.9741 5.37585 28.9741 6.62911C28.9741 6.8433 28.965 7.10307 28.924 7.32182H25.5152C25.506 7.37651 25.506 7.43119 25.506 7.48132C25.506 8.26062 25.9344 8.75281 26.6089 8.75281C27.2014 8.75281 27.6252 8.45203 27.8166 7.98718H28.7599C28.5093 8.90776 27.6571 9.59135 26.5816 9.59135ZM25.6245 6.60632H28.0126C28.0171 6.56986 28.0217 6.51518 28.0217 6.47416C28.0217 5.92273 27.7027 5.41687 26.9735 5.41687C26.2808 5.41687 25.8023 5.92729 25.6245 6.60632ZM30.9114 9.57312C29.8358 9.57312 29.1659 8.78015 29.1659 7.5588C29.1659 5.86348 30.205 4.60111 31.563 4.60111C32.315 4.60111 32.9166 5.03861 33.067 5.61739H33.0943L33.6776 2.91492H34.6574L33.2538 9.49109H32.2831L32.4426 8.74825H32.4198C32.119 9.23132 31.5403 9.57312 30.9114 9.57312ZM31.2213 8.71179C32.1099 8.71179 32.7753 7.83223 32.7753 6.68835C32.7753 5.97742 32.3378 5.47611 31.6496 5.47611C30.802 5.47611 30.1503 6.30554 30.1503 7.45854C30.1503 8.23328 30.5513 8.71179 31.2213 8.71179ZM38.4088 9.57312C37.6614 9.57312 37.0234 9.13562 36.8639 8.5295H36.8366L36.636 9.49109H35.7018L37.1009 2.91492H38.0716L37.5384 5.41687H37.5566C37.8255 4.9338 38.4043 4.60111 39.0149 4.60111C40.0814 4.60111 40.7741 5.35763 40.7741 6.63822C40.7741 8.16947 39.8672 9.57312 38.4088 9.57312ZM38.3086 8.69812C39.1972 8.69812 39.7851 7.80945 39.7851 6.72481C39.7851 5.94552 39.3932 5.45789 38.7051 5.45789C37.7936 5.45789 37.1601 6.38302 37.1601 7.48132C37.1601 8.19682 37.6204 8.69812 38.3086 8.69812ZM40.7061 11.2456C40.5283 11.2456 40.2321 11.2137 40.141 11.1864L40.2914 10.3524C40.3734 10.3843 40.5785 10.4071 40.7289 10.4071C41.0752 10.4071 41.4033 10.2385 41.6494 9.70984C41.6494 9.70072 41.777 9.45463 41.7725 9.45007L41.0479 4.68315H42.0231L42.4925 8.50216H42.5108L44.4886 4.68315H45.5505L42.6566 9.86479C42.0778 10.9312 41.5173 11.2456 40.7061 11.2456Z" fill="white"/>
<path d="M51.2176 6.89774L53.7459 10.3711H56.1221L52.9353 6.48648L56.007 2.60185H53.7459L51.2176 6.07522V2.60185H49.4492V10.3711H51.2176V6.89774Z" fill="url(#paint0_linear_19424_24226)"/>
<path d="M65.2366 6.47992C65.2366 7.67794 64.1176 8.77314 62.8834 8.77314C61.6492 8.77314 60.5301 7.67794 60.5301 6.47992C60.5301 5.27743 61.6492 4.19116 62.8834 4.19116C64.1176 4.19116 65.2366 5.27743 65.2366 6.47992ZM67.0004 6.48886C67.0004 4.34315 65.0939 2.49248 62.8834 2.49248C60.6683 2.49248 58.7617 4.34315 58.7617 6.48886C58.7617 8.63903 60.6683 10.4897 62.8834 10.4897C65.0939 10.4897 67.0004 8.63903 67.0004 6.48886Z" fill="url(#paint1_linear_19424_24226)"/>
<path d="M80.4406 10.3711L78.8886 2.60185H76.7933L75.1354 8.05105L73.4637 2.60185H71.3684L69.8164 10.3711H71.7552L72.6993 5.0113L74.265 10.3711H75.992L77.5577 5.0113L78.5018 10.3711H80.4406Z" fill="url(#paint2_linear_19424_24226)"/>
<path d="M88.2019 8.81546H85.3328V7.25088H88.0867V5.69972H85.3328V4.15749H88.2019V2.60185H83.5645V10.3711H88.2019V8.81546Z" fill="url(#paint3_linear_19424_24226)"/>
<path d="M95.3429 4.15749H97.6271V2.60185H91.2949V4.15749H93.5791V10.3711H95.3429V4.15749Z" fill="url(#paint4_linear_19424_24226)"/>
<defs>
<linearGradient id="paint0_linear_19424_24226" x1="47.6537" y1="6.69093" x2="56.9529" y2="6.69093" gradientUnits="userSpaceOnUse">
<stop stop-color="#F9654F"/>
<stop offset="1" stop-color="#FF26E9"/>
</linearGradient>
<linearGradient id="paint1_linear_19424_24226" x1="56.5449" y1="6.70154" x2="68.0261" y2="6.70155" gradientUnits="userSpaceOnUse">
<stop stop-color="#F9654F"/>
<stop offset="1" stop-color="#FF26E9"/>
</linearGradient>
<linearGradient id="paint2_linear_19424_24226" x1="66.9577" y1="6.69093" x2="81.7633" y2="6.69093" gradientUnits="userSpaceOnUse">
<stop stop-color="#F9654F"/>
<stop offset="1" stop-color="#FF26E9"/>
</linearGradient>
<linearGradient id="paint3_linear_19424_24226" x1="82.3166" y1="6.69093" x2="88.7792" y2="6.69093" gradientUnits="userSpaceOnUse">
<stop stop-color="#F9654F"/>
<stop offset="1" stop-color="#FF26E9"/>
</linearGradient>
<linearGradient id="paint4_linear_19424_24226" x1="89.5911" y1="6.69093" x2="98.4154" y2="6.69093" gradientUnits="userSpaceOnUse">
<stop stop-color="#F9654F"/>
<stop offset="1" stop-color="#FF26E9"/>
</linearGradient>
</defs>
</svg>
