<svg width="13" height="13" viewBox="0 0 13 13" fill="none" xmlns="http://www.w3.org/2000/svg">
<g clip-path="url(#clip0_19738_10804)">
<path d="M6.20016 11.0031C3.69051 11.0031 1.64844 8.96104 1.64844 6.45138C1.64844 3.94173 3.69051 1.89966 6.20016 1.89966C8.70982 1.89966 10.7519 3.94173 10.7519 6.45138C10.7519 6.56113 10.7083 6.66638 10.6307 6.74398C10.5531 6.82158 10.4478 6.86518 10.3381 6.86518C10.2283 6.86518 10.1231 6.82158 10.0455 6.74398C9.96789 6.66638 9.9243 6.56113 9.9243 6.45138C9.9243 4.39773 8.25382 2.72724 6.20016 2.72724C4.14651 2.72724 2.47602 4.39773 2.47602 6.45138C2.47602 8.50504 4.14651 10.1755 6.20016 10.1755C7.18726 10.1725 8.13341 9.78061 8.83354 9.08476C8.91113 9.00717 9.01636 8.96358 9.12609 8.96358C9.23582 8.96358 9.34105 9.00717 9.41864 9.08476C9.49623 9.16235 9.53982 9.26758 9.53982 9.37731C9.53982 9.48704 9.49623 9.59228 9.41864 9.66986C8.56307 10.5205 7.40664 10.9996 6.20016 11.0031Z" fill="url(#paint0_linear_19738_10804)"/>
<path d="M8.28723 5.55689H12.0156C12.0457 5.55678 12.0753 5.56467 12.1013 5.57975C12.1273 5.59483 12.1489 5.61655 12.1637 5.6427C12.1786 5.66885 12.1863 5.69848 12.1859 5.72855C12.1855 5.75862 12.1772 5.78806 12.1617 5.81385L10.2973 8.26585C10.2823 8.29124 10.2609 8.31229 10.2353 8.3269C10.2097 8.34152 10.1807 8.34921 10.1512 8.34921C10.1217 8.34921 10.0928 8.34152 10.0671 8.3269C10.0415 8.31229 10.0202 8.29124 10.0052 8.26585L8.14075 5.81385C8.12553 5.78799 8.1174 5.75857 8.11719 5.72856C8.11698 5.69854 8.1247 5.66901 8.13956 5.64294C8.15442 5.61687 8.17591 5.59518 8.20184 5.58007C8.22776 5.56496 8.25722 5.55696 8.28723 5.55689Z" fill="url(#paint1_linear_19738_10804)"/>
</g>
<defs>
<linearGradient id="paint0_linear_19738_10804" x1="1.64844" y1="1.89966" x2="10.7519" y2="11.0031" gradientUnits="userSpaceOnUse">
<stop stop-color="#81FBB8"/>
<stop offset="1" stop-color="#28C76F"/>
</linearGradient>
<linearGradient id="paint1_linear_19738_10804" x1="8.11719" y1="5.55688" x2="10.7227" y2="9.3534" gradientUnits="userSpaceOnUse">
<stop stop-color="#81FBB8"/>
<stop offset="1" stop-color="#28C76F"/>
</linearGradient>
<clipPath id="clip0_19738_10804">
<rect width="12" height="12" fill="white" transform="translate(0.71875 0.451416)"/>
</clipPath>
</defs>
</svg>
