<svg width="88" height="21" viewBox="0 0 88 21" fill="none" xmlns="http://www.w3.org/2000/svg">
<path d="M87.2388 1.17261C87.2388 0.956591 87.0637 0.781476 86.8477 0.781476H1.22266C1.00664 0.781476 0.831528 0.956592 0.831528 1.17261V19.9226C0.831528 20.1386 1.00664 20.3137 1.22266 20.3137H83.6564C83.7863 20.3137 83.9077 20.2492 83.9805 20.1416L87.1717 15.419C87.2154 15.3543 87.2388 15.278 87.2388 15.2V1.17261Z" stroke="white" stroke-width="0.467736"/>
<rect width="15.4774" height="1.18057" transform="matrix(-1 0 0 1 51.7734 19.3671)" fill="white"/>
<path d="M25.0538 13.1055V5.50541H28.6556C29.7791 5.50541 30.3409 6.06715 30.3409 7.19065V8.40226C30.3409 9.35687 29.9333 9.90026 29.1182 10.0324L30.5612 12.8852L30.44 13.1055H29.658L28.1269 10.0875H25.9791V13.1055H25.0538ZM25.9791 9.25039H28.6666C29.166 9.25039 29.4156 9.00073 29.4156 8.5014V7.09152C29.4156 6.59219 29.166 6.34252 28.6666 6.34252H25.9791V9.25039ZM33.1347 11.4203V5.50541H34.06V11.5194C34.06 12.0187 34.3096 12.2684 34.8089 12.2684H37.1881C37.6874 12.2684 37.9371 12.0187 37.9371 11.5194V5.50541H38.8623V11.4203C38.8623 12.5438 38.3006 13.1055 37.1771 13.1055H34.82C33.6965 13.1055 33.1347 12.5438 33.1347 11.4203ZM41.8856 13.1055V5.50541H42.8108V12.2684H46.5118V13.1055H41.8856ZM48.8709 13.1055V5.50541H53.8275V6.34252H49.7961V8.69966H53.4971V9.53678H49.7961V12.2684H53.8275V13.1055H48.8709ZM56.1389 12.72V12.2684H59.5314C60.0307 12.2684 60.2804 12.0187 60.2804 11.5194V10.6272C60.2804 10.2087 60.0931 9.96268 59.7186 9.88925L57.3505 9.4046C56.5427 9.24305 56.1389 8.70333 56.1389 7.78544V7.19065C56.1389 6.06715 56.7006 5.50541 57.8241 5.50541H60.4897L60.9853 5.89092V6.34252H57.8131C57.3138 6.34252 57.0641 6.59219 57.0641 7.09152V7.84052C57.0641 8.25907 57.2513 8.50507 57.6258 8.5785L59.994 9.05213C60.8017 9.21368 61.2056 9.75707 61.2056 10.6823V11.4203C61.2056 12.5438 60.6439 13.1055 59.5204 13.1055H56.6345L56.1389 12.72Z" fill="white"/>
</svg>
