<svg width="22" height="25" viewBox="0 0 22 25" fill="none" xmlns="http://www.w3.org/2000/svg">
<path d="M8.57009 0.818473C8.63975 0.748632 8.72251 0.693221 8.81363 0.655413C8.90474 0.617606 9.00241 0.598145 9.10106 0.598145C9.19971 0.598145 9.29738 0.617606 9.38849 0.655413C9.47961 0.693221 9.56237 0.748632 9.63203 0.818473L14.1318 5.31822C14.2726 5.45904 14.3517 5.65004 14.3517 5.84919C14.3517 6.04834 14.2726 6.23934 14.1318 6.38016C13.991 6.52098 13.8 6.6001 13.6008 6.6001C13.4017 6.6001 13.2107 6.52098 13.0698 6.38016L9.85102 3.15984V14.8487C9.85102 15.0476 9.77201 15.2383 9.63136 15.379C9.49072 15.5196 9.29996 15.5986 9.10106 15.5986C8.90216 15.5986 8.7114 15.5196 8.57076 15.379C8.43011 15.2383 8.3511 15.0476 8.3511 14.8487V3.15984L5.13228 6.38016C4.99146 6.52098 4.80046 6.6001 4.60131 6.6001C4.40216 6.6001 4.21116 6.52098 4.07034 6.38016C3.92952 6.23934 3.85041 6.04834 3.85041 5.84919C3.85041 5.65004 3.92952 5.45904 4.07034 5.31822L8.57009 0.818473ZM3.50337 23.0982C3.76666 23.5542 4.14534 23.9329 4.60135 24.1962C5.05737 24.4595 5.57466 24.5981 6.10123 24.5981H15.1007C16.6919 24.5981 18.218 23.966 19.3431 22.8409C20.4683 21.7157 21.1004 20.1897 21.1004 18.5985V13.3488C21.1004 13.1499 21.0214 12.9591 20.8807 12.8185C20.7401 12.6778 20.5493 12.5988 20.3504 12.5988C20.1515 12.5988 19.9608 12.6778 19.8201 12.8185C19.6795 12.9591 19.6005 13.1499 19.6005 13.3488V18.5985C19.6005 19.7919 19.1264 20.9364 18.2825 21.7803C17.4387 22.6241 16.2941 23.0982 15.1007 23.0982H3.50337ZM1.60148 10.3489C1.60148 10.15 1.52247 9.95928 1.38182 9.81864C1.24118 9.67799 1.05042 9.59898 0.851521 9.59898C0.652619 9.59898 0.461865 9.67799 0.32122 9.81864C0.180576 9.95928 0.101562 10.15 0.101562 10.3489V18.5985C0.101563 19.3941 0.417615 20.1571 0.980193 20.7197C1.54277 21.2823 2.30579 21.5983 3.1014 21.5983H15.1007C15.8963 21.5983 16.6593 21.2823 17.2219 20.7197C17.7845 20.1571 18.1006 19.3941 18.1006 18.5985V10.3489C18.1006 10.15 18.0215 9.95928 17.8809 9.81864C17.7403 9.67799 17.5495 9.59898 17.3506 9.59898C17.1517 9.59898 16.9609 9.67799 16.8203 9.81864C16.6797 9.95928 16.6006 10.15 16.6006 10.3489V18.5985C16.6006 18.9963 16.4426 19.3778 16.1613 19.6591C15.88 19.9404 15.4985 20.0984 15.1007 20.0984H3.1014C2.70359 20.0984 2.32208 19.9404 2.04079 19.6591C1.75951 19.3778 1.60148 18.9963 1.60148 18.5985V10.3489Z" fill="white"/>
</svg>
