<svg width="88" height="21" viewBox="0 0 88 21" fill="none" xmlns="http://www.w3.org/2000/svg">
<path d="M87.5044 1.17261C87.5044 0.956591 87.3293 0.781476 87.1133 0.781476H1.48828C1.27226 0.781476 1.09715 0.956592 1.09715 1.17261V19.9226C1.09715 20.1386 1.27226 20.3137 1.48828 20.3137H83.922C84.0519 20.3137 84.1734 20.2492 84.2461 20.1416L87.4374 15.419C87.4811 15.3543 87.5044 15.278 87.5044 15.2V1.17261Z" stroke="white" stroke-width="0.467736"/>
<rect width="15.4774" height="1.18057" transform="matrix(-1 0 0 1 52.0391 19.3671)" fill="white"/>
<path d="M24.9968 12.72V12.2684H28.3893C28.8887 12.2684 29.1383 12.0187 29.1383 11.5194V10.6272C29.1383 10.2087 28.9511 9.96268 28.5766 9.88925L26.2084 9.4046C25.4007 9.24305 24.9968 8.70333 24.9968 7.78544V7.19065C24.9968 6.06715 25.5586 5.50541 26.6821 5.50541H29.3476L29.8433 5.89092V6.34252H26.671C26.1717 6.34252 25.9221 6.59219 25.9221 7.09152V7.84052C25.9221 8.25907 26.1093 8.50507 26.4838 8.5785L28.852 9.05213C29.6597 9.21368 30.0636 9.75707 30.0636 10.6823V11.4203C30.0636 12.5438 29.5018 13.1055 28.3783 13.1055H25.4925L24.9968 12.72ZM32.8181 13.1055V5.50541H33.7433V8.69966H37.6205V5.50541H38.5457V13.1055H37.6205V9.53678H33.7433V13.1055H32.8181ZM40.861 12.9073L43.3503 5.50541H44.8703L47.3596 12.9073L47.2274 13.1055H46.4674L45.8396 11.189H42.381L41.7531 13.1055H40.9931L40.861 12.9073ZM42.6564 10.3519H45.5642L44.2425 6.34252H43.9781L42.6564 10.3519ZM49.6714 13.1055V5.50541H53.2732C54.3967 5.50541 54.9584 6.06715 54.9584 7.19065V8.40226C54.9584 9.35687 54.5509 9.90026 53.7358 10.0324L55.1787 12.8852L55.0576 13.1055H54.2755L52.7445 10.0875H50.5966V13.1055H49.6714ZM50.5966 9.25039H53.2842C53.7835 9.25039 54.0332 9.00073 54.0332 8.5014V7.09152C54.0332 6.59219 53.7835 6.34252 53.2842 6.34252H50.5966V9.25039ZM57.8184 13.1055V5.50541H62.775V6.34252H58.7436V8.69966H62.4446V9.53678H58.7436V12.2684H62.775V13.1055H57.8184Z" fill="white"/>
</svg>
