<svg width="187" height="44" viewBox="0 0 187 44" fill="none" xmlns="http://www.w3.org/2000/svg">
<path d="M0.433594 1.88383C0.433594 1.14586 1.03184 0.547607 1.76982 0.547607H184.832C185.57 0.547607 186.169 1.14585 186.169 1.88383V41.9705C186.169 42.7085 185.57 43.3067 184.832 43.3067H8.59262C8.14881 43.3067 7.73396 43.0864 7.48547 42.7187L0.662671 32.6219C0.513374 32.401 0.433594 32.1404 0.433594 31.8738V1.88383Z" fill="url(#paint0_linear_15112_2041)"/>
<path d="M82.6161 19.3363C82.5607 18.8685 82.3361 18.5053 81.9421 18.2468C81.5482 17.9883 81.065 17.859 80.4925 17.859C80.074 17.859 79.7077 17.9267 79.3938 18.0621C79.083 18.1975 78.8398 18.3837 78.6644 18.6207C78.4921 18.8577 78.4059 19.127 78.4059 19.4286C78.4059 19.681 78.4659 19.8979 78.5859 20.0795C78.709 20.258 78.866 20.4073 79.0568 20.5273C79.2476 20.6443 79.4477 20.7412 79.657 20.8182C79.8662 20.892 80.0586 20.952 80.234 20.9982L81.1942 21.2567C81.4405 21.3214 81.7144 21.4106 82.016 21.5245C82.3207 21.6384 82.6115 21.7938 82.8885 21.9908C83.1686 22.1846 83.3994 22.4339 83.581 22.7386C83.7625 23.0433 83.8533 23.4172 83.8533 23.8604C83.8533 24.3713 83.7195 24.833 83.4517 25.2454C83.187 25.6578 82.7992 25.9855 82.2884 26.2287C81.7805 26.4718 81.1635 26.5934 80.4371 26.5934C79.7601 26.5934 79.1738 26.4841 78.6783 26.2656C78.1858 26.0471 77.7981 25.7424 77.5149 25.3515C77.2348 24.9607 77.0763 24.5067 77.0394 23.9897H78.2212C78.252 24.3467 78.372 24.6421 78.5813 24.876C78.7937 25.1069 79.0614 25.2792 79.3846 25.3931C79.7108 25.5039 80.0617 25.5593 80.4371 25.5593C80.8742 25.5593 81.2666 25.4885 81.6143 25.3469C81.9621 25.2023 82.2376 25.0022 82.4407 24.7468C82.6438 24.4883 82.7454 24.1867 82.7454 23.842C82.7454 23.528 82.6577 23.2726 82.4822 23.0756C82.3068 22.8787 82.076 22.7186 81.7898 22.5955C81.5036 22.4724 81.1942 22.3647 80.8619 22.2724L79.6985 21.94C78.9599 21.7276 78.3751 21.4245 77.9442 21.0305C77.5134 20.6366 77.2979 20.1211 77.2979 19.484C77.2979 18.9546 77.4411 18.493 77.7273 18.0991C78.0166 17.702 78.4044 17.3943 78.8906 17.1758C79.38 16.9542 79.9263 16.8434 80.5295 16.8434C81.1388 16.8434 81.6805 16.9526 82.1545 17.1711C82.6284 17.3866 83.0039 17.682 83.2809 18.0575C83.561 18.433 83.7087 18.8592 83.7241 19.3363H82.6161ZM87.0357 26.4272V16.9726H90.2303C90.972 16.9726 91.5783 17.1065 92.0492 17.3743C92.5232 17.639 92.874 17.9975 93.1018 18.4499C93.3295 18.9023 93.4434 19.4071 93.4434 19.9641C93.4434 20.5212 93.3295 21.0274 93.1018 21.4829C92.8771 21.9384 92.5293 22.3016 92.0584 22.5724C91.5876 22.8402 90.9843 22.9741 90.2488 22.9741H87.959V21.9584H90.2118C90.7197 21.9584 91.1274 21.8707 91.4352 21.6953C91.743 21.5199 91.9661 21.2829 92.1046 20.9844C92.2462 20.6827 92.317 20.3427 92.317 19.9641C92.317 19.5856 92.2462 19.247 92.1046 18.9485C91.9661 18.65 91.7414 18.4161 91.4306 18.2468C91.1198 18.0744 90.7073 17.9883 90.1934 17.9883H88.1806V26.4272H87.0357ZM97.7325 16.9726V26.4272H96.5877V16.9726H97.7325ZM108.825 16.9726V26.4272H107.717L102.565 19.0039H102.473V26.4272H101.328V16.9726H102.436L107.606 24.4144H107.699V16.9726H108.825Z" fill="black"/>
<defs>
<linearGradient id="paint0_linear_15112_2041" x1="0.433594" y1="0.547607" x2="19.1303" y2="81.7616" gradientUnits="userSpaceOnUse">
<stop stop-color="#81FBB8"/>
<stop offset="1" stop-color="#28C76F"/>
</linearGradient>
</defs>
</svg>
