<svg width="20" height="140" viewBox="0 0 20 140" fill="none" xmlns="http://www.w3.org/2000/svg">
<path d="M10.0625 10.8906L10.0625 130.891" stroke="#01D370" stroke-linecap="round"/>
<g clip-path="url(#clip0_15112_2041)">
<circle cx="10.543" cy="68.8906" r="6.875" stroke="#01D370" stroke-width="4.25"/>
<circle cx="10.543" cy="68.8906" r="4.875" stroke="#40CF8F" stroke-width="4.25"/>
<circle cx="10.543" cy="68.8906" r="4.5" fill="#01D370"/>
</g>
<path d="M10.0641 16.5156C14.1191 16.5156 17.3548 13.0726 17.3548 8.89062C17.3548 4.70863 14.1191 1.26562 10.0641 1.26562C6.00911 1.26562 2.77344 4.70863 2.77344 8.89062C2.77344 13.0726 6.00911 16.5156 10.0641 16.5156Z" fill="#01D370" stroke="#01D370" stroke-width="1.25"/>
<path d="M10.0641 138.516C14.1191 138.516 17.3548 135.073 17.3548 130.891C17.3548 126.709 14.1191 123.266 10.0641 123.266C6.00911 123.266 2.77344 126.709 2.77344 130.891C2.77344 135.073 6.00911 138.516 10.0641 138.516Z" fill="#01D370" stroke="#01D370" stroke-width="1.25"/>
<defs>
<clipPath id="clip0_15112_2041">
<rect width="19.0448" height="20" fill="white" transform="translate(0.542969 58.8906)"/>
</clipPath>
</defs>
</svg>
