<svg width="87" height="21" viewBox="0 0 87 21" fill="none" xmlns="http://www.w3.org/2000/svg">
<path d="M86.77 1.17261C86.77 0.956591 86.5949 0.781476 86.3789 0.781476H0.753906C0.537888 0.781476 0.362778 0.956592 0.362778 1.17261V19.9226C0.362778 20.1386 0.537888 20.3137 0.753906 20.3137H83.1876C83.3175 20.3137 83.439 20.2492 83.5117 20.1416L86.703 15.419C86.7467 15.3543 86.77 15.278 86.77 15.2V1.17261Z" stroke="white" stroke-width="0.467736"/>
<rect width="15.4774" height="1.18057" transform="matrix(-1 0 0 1 51.3047 19.3671)" fill="white"/>
<path d="M23.8581 6.34252V5.50541H29.8501V6.34252H27.3167V13.1055H26.3915V6.34252H23.8581ZM32.0948 11.4203V7.19065C32.0948 6.06715 32.6566 5.50541 33.7801 5.50541H36.3575C37.481 5.50541 38.0428 6.06715 38.0428 7.19065V11.4203C38.0428 12.5438 37.481 13.1055 36.3575 13.1055H33.7801C32.6566 13.1055 32.0948 12.5438 32.0948 11.4203ZM33.0201 11.5194C33.0201 12.0187 33.2697 12.2684 33.7691 12.2684H36.3685C36.8679 12.2684 37.1175 12.0187 37.1175 11.5194V7.09152C37.1175 6.59219 36.8679 6.34252 36.3685 6.34252H33.7691C33.2697 6.34252 33.0201 6.59219 33.0201 7.09152V11.5194ZM41.0189 13.1055V5.50541H44.6207C45.7442 5.50541 46.3059 6.06715 46.3059 7.19065V8.62256C46.3059 9.74605 45.7442 10.3078 44.6207 10.3078H41.9441V13.1055H41.0189ZM41.9441 9.47069H44.6317C45.131 9.47069 45.3807 9.22102 45.3807 8.72169V7.09152C45.3807 6.59219 45.131 6.34252 44.6317 6.34252H41.9441V9.47069ZM48.9922 11.4203V5.50541H49.9174V11.5194C49.9174 12.0187 50.1671 12.2684 50.6664 12.2684H53.0456C53.5449 12.2684 53.7946 12.0187 53.7946 11.5194V5.50541H54.7198V11.4203C54.7198 12.5438 54.1581 13.1055 53.0346 13.1055H50.6775C49.554 13.1055 48.9922 12.5438 48.9922 11.4203ZM57.7431 13.1055V5.50541H61.3449C62.4684 5.50541 63.0301 6.06715 63.0301 7.19065V8.62256C63.0301 9.74605 62.4684 10.3078 61.3449 10.3078H58.6683V13.1055H57.7431ZM58.6683 9.47069H61.3559C61.8553 9.47069 62.1049 9.22102 62.1049 8.72169V7.09152C62.1049 6.59219 61.8553 6.34252 61.3559 6.34252H58.6683V9.47069Z" fill="white"/>
</svg>
